<svg xmlns="http://www.w3.org/2000/svg" xmlns:v="https://vecta.io/nano" xmlns:xlink="http://www.w3.org/1999/xlink" id="Layer_1" x="0" y="0" version="1.1" viewBox="0 0 200 130" xml:space="preserve" style="enable-background:new 0 0 200 130"><style type="text/css">.st0{opacity:.9;clip-path:url(#SVGID_2_)}.st1{fill:#4444c6}.st2{fill:#fff}.st3{opacity:.1;fill:#242628;enable-background:new}.st4{fill:#282e5b}.st5{fill:#059bdc}</style><g><defs><rect id="SVGID_1_" width="200" height="130" x="-.5" y="-.2"/></defs><clipPath id="SVGID_2_"><use xlink:href="#SVGID_1_" style="overflow:visible"/></clipPath><g class="st0"><g><path id="C" d="M66.2,92.8c0,6-3.2,10.9-7.2,10.9s-7.2-4.8-7.2-10.9S55,81.9,59,81.9S66.2,86.7,66.2,92.8z" class="st1"/></g><g><path d="M97.6,92.8c0,6-3.2,10.9-7.2,10.9s-7.2-4.8-7.2-10.9s3.2-10.9,7.2-10.9S97.6,86.7,97.6,92.8z" class="st1"/></g><path d="M144.6,102.4v1h-1c-5.7,0-7.4,0-8,0c-0.4,0-0.4,0-0.8,0c-0.6,0-2.3,0-9.2,0.1h-1.1v-1.1c0,0,0.1-4.6-2-10.2 c-1.2-3.2-3-6.1-5.2-8.6c-2.7-3.1-6.2-5.5-10.3-7.3c-8.3-3.5-13.9-6.6-18.7-10.1c-5.2-3.9-9.6-8.4-13.8-14.3 c-4.2,5.9-8.6,10.5-13.8,14.4C56,69.8,50.4,73,42.1,76.4c-4.1,1.7-7.5,4.2-10.3,7.3c-2.2,2.5-4,5.4-5.2,8.5 c-2.2,5.5-2,10.1-2,10.2v1.1h-1.1c-6.9,0-8.6-0.1-9.2-0.1c-0.3,0-0.3,0-0.8,0c-0.6,0-2.3,0-8,0h-1v-1C4.5,93.1,7.4,83.3,12.8,75 c5.5-8.3,12.9-14.5,21.1-17.3c3.7-1.3,7.1-3,10.4-5.2c2.6-1.7,5.1-3.7,7.2-5.7c3.7-3.5,5.6-6.5,5.6-6.7 c5.8-9.9,11.5-19.9,17.3-29.8c5.8,9.9,11.5,19.8,17.3,29.7c0.1,0.2,1.9,3.1,5.6,6.7c2.3,2.2,4.6,4.1,7.2,5.7 c3.2,2.2,6.8,3.9,10.4,5.2c8.2,2.9,15.7,9,21.1,17.3C141.8,83.3,144.7,93.1,144.6,102.4z" class="st1"/><path d="M196,76c0,7.2-1.7,14-4.7,20l0,0c-7.4,14.8-22.6,25-40.3,25l0,0c-17.7,0-32.9-10.2-40.3-25l0,0 c-3-6-4.7-12.8-4.7-20c0-24.8,20.1-45,45-45l0,0C175.9,31,196,51.2,196,76z" class="st2"/><path d="M151,31c-24.8,0-45,20.2-45,45s20.2,45,45,45s45-20.2,45-45S175.8,31,151,31z M187.3,94 c-6.6,13.3-20.4,22.5-36.3,22.5l0,0c-15.9,0-29.6-9.2-36.3-22.5l0,0c-2.7-5.4-4.2-11.5-4.2-18c0-22.4,18.1-40.5,40.5-40.5l0,0 c22.4,0,40.5,18.1,40.5,40.5C191.5,82.5,190,88.6,187.3,94L187.3,94z" class="st3"/><path d="M157.3,64.1c0-8.9-4.3-16.5-7.6-19.1c0,0-0.2-0.1-0.2,0.2c-0.3,17.2-9,21.9-13.8,28.1 c-11.1,14.5-0.8,30.4,9.7,33.3c5.9,1.6-1.4-2.9-2.3-12.5C142.1,82.5,157.3,73.7,157.3,64.1" class="st4"/><path d="M163.1,70c0,0-0.1,0-0.2,0l0,0c-0.2,2.1-2.6,6.8-5.5,11c-10.1,14.4-4.3,21.3-1.1,25.1c1.9,2.2,0,0,4.7-2.2 c0.4-0.2,9.1-4.8,10.1-15.4C171.9,78.2,165.4,71.8,163.1,70" class="st5"/></g></g></svg>